<?xml version="1.0" encoding="utf-8" ?>
<svg baseProfile="full" height="1000" version="1.1" width="1000" xmlns="http://www.w3.org/2000/svg" xmlns:ev="http://www.w3.org/2001/xml-events" xmlns:xlink="http://www.w3.org/1999/xlink"><defs /><rect fill="rgb(58,156,53)" height="1000" width="1000" x="0" y="0" /><path d="M 259 114 L 259 111 L 259 109 L 260 107 L 260 105 L 261 103 L 262 101 L 262 99 L 263 97 L 264 95 L 265 93 L 266 92 L 267 90 L 268 88 L 270 87 L 271 85 L 272 83 L 274 82 L 275 80 L 277 79 L 278 78 L 280 76 L 282 75 L 284 74 L 285 72 L 287 71 L 289 70 L 291 69 L 293 68 L 295 67 L 297 66 L 300 65 L 302 64 L 304 63 L 306 62 L 309 61 L 311 60 L 314 60 L 316 59 L 319 58 L 321 58 L 324 57 L 327 56 L 329 56 L 332 55 L 335 55 L 338 54 L 341 54 L 343 53 L 346 53 L 349 53 L 352 52 L 355 52 L 358 52 L 362 52 L 365 51 L 368 51 L 371 51 L 374 51 L 377 51 L 381 51 L 384 51 L 387 51 L 391 51 L 394 51 L 397 51 L 401 51 L 404 51 L 407 51 L 411 51 L 414 51 L 418 52 L 421 52 L 425 52 L 428 52 L 432 53 L 435 53 L 439 53 L 443 54 L 446 54 L 450 55 L 453 55 L 457 55 L 460 56 L 464 56 L 468 57 L 471 57 L 475 58 L 479 58 L 482 59 L 486 60 L 489 60 L 493 61 L 497 61 L 500 62 L 504 63 L 508 63 L 511 64 L 515 65 L 518 65 L 522 66 L 525 67 L 529 68 L 533 68 L 536 69 L 540 70 L 543 71 L 547 72 L 550 73 L 554 73 L 557 74 L 561 75 L 564 76 L 567 77 L 571 78 L 574 79 L 577 80 L 581 80 L 584 81 L 587 82 L 591 83 L 594 84 L 597 85 L 600 86 L 603 87 L 606 88 L 610 89 L 613 90 L 616 91 L 619 92 L 622 93 L 625 94 L 627 95 L 630 96 L 633 97 L 636 98 L 639 99 L 641 100 L 644 101 L 647 102 L 649 103 L 652 104 L 655 105 L 657 106 L 660 107 L 662 108 L 665 109 L 667 110 L 670 111 L 672 112 L 675 113 L 677 115 L 679 116 L 682 117 L 684 118 L 687 119 L 689 120 L 691 121 L 693 122 L 696 124 L 698 125 L 700 126 L 703 127 L 705 128 L 707 129 L 709 131 L 711 132 L 714 133 L 716 134 L 718 135 L 720 137 L 722 138 L 725 139 L 727 140 L 729 142 L 731 143 L 733 144 L 736 146 L 738 147 L 740 148 L 742 150 L 744 151 L 747 152 L 749 154 L 751 155 L 753 157 L 756 158 L 758 159 L 760 161 L 762 162 L 765 164 L 767 165 L 769 167 L 772 168 L 774 170 L 776 171 L 779 173 L 781 175 L 784 176 L 786 178 L 789 179 L 791 181 L 794 183 L 796 184 L 799 186 L 801 188 L 804 189 L 806 191 L 809 193 L 812 194 L 814 196 L 817 198 L 820 200 L 823 202 L 826 204 L 828 205 L 831 207 L 834 209 L 837 211 L 840 213 L 843 215 L 846 217 L 849 219 L 852 221 L 855 223 L 859 225 L 862 227 L 865 229 L 868 231 L 871 233 L 873 235 L 876 237 L 879 239 L 882 241 L 884 243 L 887 245 L 889 247 L 891 250 L 893 252 L 895 254 L 897 256 L 899 258 L 900 260 L 902 262 L 903 264 L 904 266 L 905 268 L 905 270 L 906 272 L 906 274 L 906 276 L 905 278 L 905 280 L 904 282 L 903 284 L 902 285 L 900 287 L 898 289 L 896 291 L 894 293 L 892 295 L 890 297 L 888 298 L 885 300 L 883 302 L 880 304 L 878 306 L 875 308 L 873 310 L 870 312 L 868 314 L 866 316 L 864 318 L 861 320 L 859 322 L 857 324 L 856 327 L 854 329 L 852 331 L 850 333 L 849 336 L 847 338 L 846 340 L 845 343 L 843 345 L 842 348 L 841 350 L 840 353 L 839 355 L 838 358 L 837 360 L 836 363 L 835 365 L 834 368 L 834 371 L 833 373 L 832 376 L 832 379 L 831 381 L 831 384 L 831 387 L 830 390 L 830 392 L 830 395 L 830 398 L 830 401 L 830 404 L 830 407 L 830 410 L 830 412 L 830 415 L 830 418 L 830 421 L 830 424 L 831 427 L 831 430 L 831 433 L 832 436 L 832 439 L 832 442 L 833 445 L 833 448 L 834 451 L 834 454 L 835 457 L 836 460 L 836 463 L 837 466 L 838 469 L 838 472 L 839 475 L 840 478 L 841 481 L 841 484 L 842 488 L 843 491 L 844 494 L 845 497 L 846 500 L 846 503 L 847 506 L 848 509 L 849 512 L 850 515 L 851 518 L 852 521 L 853 524 L 854 527 L 855 530 L 856 533 L 857 536 L 858 539 L 859 542 L 860 545 L 861 548 L 862 551 L 863 554 L 864 557 L 865 560 L 866 563 L 866 566 L 867 569 L 868 572 L 869 575 L 870 577 L 871 580 L 872 583 L 873 586 L 874 589 L 874 592 L 875 594 L 876 597 L 877 600 L 878 603 L 878 605 L 879 608 L 880 611 L 881 614 L 881 616 L 882 619 L 883 622 L 883 624 L 884 627 L 885 630 L 885 633 L 886 635 L 887 638 L 887 641 L 888 643 L 888 646 L 889 649 L 889 651 L 890 654 L 890 657 L 891 659 L 891 662 L 892 665 L 892 667 L 892 670 L 893 673 L 893 675 L 893 678 L 894 681 L 894 684 L 894 686 L 894 689 L 895 692 L 895 694 L 895 697 L 895 700 L 895 703 L 895 706 L 896 708 L 896 711 L 896 714 L 896 717 L 896 720 L 896 722 L 896 725 L 896 728 L 896 731 L 895 734 L 895 737 L 895 740 L 895 743 L 895 746 L 895 749 L 894 752 L 894 755 L 894 758 L 893 761 L 893 764 L 893 767 L 892 770 L 892 773 L 891 776 L 891 779 L 890 782 L 890 785 L 889 788 L 889 792 L 888 795 L 887 798 L 887 801 L 886 804 L 885 807 L 884 810 L 883 813 L 882 816 L 881 819 L 880 822 L 879 825 L 878 828 L 877 831 L 876 833 L 875 836 L 874 839 L 872 841 L 871 844 L 870 847 L 868 849 L 867 851 L 865 854 L 864 856 L 862 858 L 860 861 L 859 863 L 857 865 L 855 867 L 853 869 L 851 870 L 849 872 L 847 874 L 845 875 L 843 877 L 841 878 L 838 879 L 836 881 L 834 882 L 831 883 L 829 883 L 826 884 L 823 885 L 821 886 L 818 886 L 815 886 L 812 887 L 810 887 L 807 887 L 804 887 L 801 888 L 798 888 L 795 888 L 792 888 L 789 887 L 787 887 L 784 887 L 781 887 L 778 887 L 775 887 L 772 886 L 770 886 L 767 886 L 764 886 L 761 885 L 758 885 L 756 885 L 753 884 L 750 884 L 748 883 L 745 883 L 742 882 L 739 882 L 737 881 L 734 881 L 731 880 L 729 880 L 726 879 L 723 879 L 720 878 L 718 877 L 715 877 L 712 876 L 710 876 L 707 875 L 704 874 L 702 874 L 699 873 L 696 872 L 694 872 L 691 871 L 688 870 L 686 870 L 683 869 L 680 869 L 678 868 L 675 867 L 672 867 L 670 866 L 667 865 L 664 865 L 661 864 L 659 864 L 656 863 L 653 862 L 651 862 L 648 861 L 645 861 L 642 860 L 640 860 L 637 859 L 634 859 L 631 858 L 628 858 L 626 857 L 623 857 L 620 856 L 617 856 L 614 856 L 611 855 L 608 855 L 606 855 L 603 854 L 600 854 L 597 854 L 594 854 L 591 854 L 588 853 L 585 853 L 582 853 L 579 853 L 576 853 L 573 853 L 570 853 L 567 853 L 564 853 L 561 853 L 557 854 L 554 854 L 551 854 L 548 854 L 545 854 L 542 854 L 539 855 L 535 855 L 532 855 L 529 856 L 526 856 L 523 856 L 520 857 L 516 857 L 513 857 L 510 858 L 507 858 L 503 859 L 500 859 L 497 859 L 494 860 L 491 860 L 487 861 L 484 861 L 481 862 L 478 862 L 474 863 L 471 863 L 468 864 L 465 864 L 461 865 L 458 866 L 455 866 L 452 867 L 449 867 L 445 868 L 442 868 L 439 869 L 436 869 L 432 870 L 429 871 L 426 871 L 423 872 L 420 872 L 417 873 L 413 873 L 410 874 L 407 875 L 404 875 L 401 876 L 398 876 L 395 877 L 392 877 L 389 878 L 385 878 L 382 879 L 379 879 L 376 880 L 373 880 L 370 881 L 367 881 L 364 882 L 361 882 L 359 882 L 356 883 L 353 883 L 350 883 L 347 884 L 344 884 L 341 884 L 338 885 L 336 885 L 333 885 L 330 886 L 327 886 L 325 886 L 322 886 L 319 886 L 317 886 L 314 887 L 312 887 L 309 887 L 306 887 L 304 887 L 301 887 L 299 887 L 296 887 L 294 887 L 292 886 L 289 886 L 287 886 L 285 886 L 282 886 L 280 885 L 278 885 L 276 885 L 273 884 L 271 884 L 269 884 L 267 883 L 265 883 L 263 882 L 261 882 L 259 881 L 257 880 L 255 880 L 254 879 L 252 878 L 250 877 L 248 876 L 247 876 L 245 875 L 243 874 L 242 873 L 240 872 L 239 871 L 237 869 L 236 868 L 234 867 L 233 866 L 232 864 L 230 863 L 229 862 L 228 860 L 227 859 L 225 857 L 224 856 L 223 854 L 222 852 L 221 851 L 220 849 L 219 847 L 218 846 L 217 844 L 216 842 L 215 840 L 215 838 L 214 836 L 213 834 L 212 832 L 211 830 L 211 828 L 210 826 L 209 823 L 208 821 L 208 819 L 207 817 L 206 814 L 206 812 L 205 810 L 204 807 L 204 805 L 203 802 L 203 800 L 202 797 L 202 795 L 201 792 L 200 789 L 200 787 L 199 784 L 199 781 L 198 779 L 198 776 L 197 773 L 197 770 L 196 767 L 196 765 L 195 762 L 195 759 L 194 756 L 194 753 L 193 750 L 193 747 L 192 744 L 191 741 L 191 738 L 190 735 L 190 732 L 189 728 L 189 725 L 188 722 L 187 719 L 187 716 L 186 712 L 186 709 L 185 706 L 184 703 L 184 699 L 183 696 L 182 693 L 181 689 L 181 686 L 180 683 L 179 679 L 178 676 L 177 672 L 176 669 L 176 665 L 175 662 L 174 659 L 173 655 L 172 652 L 171 648 L 170 644 L 169 641 L 168 637 L 166 634 L 165 630 L 164 627 L 163 623 L 162 620 L 160 616 L 159 612 L 158 609 L 156 605 L 155 602 L 153 598 L 152 594 L 150 591 L 149 587 L 147 583 L 146 580 L 144 576 L 143 573 L 141 569 L 140 566 L 138 562 L 137 559 L 136 556 L 134 552 L 133 549 L 132 546 L 131 542 L 130 539 L 128 536 L 128 533 L 127 530 L 126 527 L 125 524 L 124 521 L 124 519 L 124 516 L 123 513 L 123 511 L 123 509 L 123 506 L 123 504 L 123 502 L 124 500 L 124 498 L 125 496 L 126 494 L 127 493 L 128 491 L 130 490 L 131 488 L 133 487 L 135 486 L 137 485 L 140 484 L 142 484 L 145 483 L 148 483 L 150 482 L 153 482 L 157 482 L 160 481 L 163 481 L 166 481 L 170 481 L 173 481 L 176 481 L 180 480 L 183 480 L 186 480 L 189 480 L 192 480 L 195 479 L 198 479 L 201 478 L 203 477 L 205 477 L 208 476 L 210 475 L 211 474 L 213 472 L 214 471 L 215 469 L 216 468 L 216 466 L 216 464 L 216 461 L 216 459 L 216 457 L 216 454 L 215 451 L 214 449 L 213 446 L 213 443 L 212 440 L 211 437 L 210 434 L 208 431 L 207 428 L 206 424 L 205 421 L 204 418 L 203 415 L 202 412 L 202 409 L 201 405 L 200 402 L 200 399 L 200 396 L 199 393 L 200 390 L 200 388 L 200 385 L 201 382 L 201 380 L 202 377 L 203 375 L 204 372 L 205 370 L 207 367 L 208 365 L 209 363 L 211 360 L 213 358 L 215 356 L 216 354 L 218 351 L 220 349 L 222 347 L 224 345 L 226 343 L 229 341 L 231 339 L 233 337 L 235 335 L 237 333 L 240 331 L 242 328 L 244 326 L 246 324 L 248 322 L 250 320 L 252 318 L 254 316 L 256 314 L 258 312 L 260 309 L 262 307 L 264 305 L 265 303 L 267 300 L 268 298 L 270 295 L 271 293 L 272 290 L 273 288 L 274 285 L 275 283 L 275 280 L 276 278 L 277 275 L 277 272 L 278 269 L 278 267 L 278 264 L 278 261 L 279 258 L 279 255 L 279 252 L 279 249 L 278 246 L 278 244 L 278 241 L 278 238 L 277 235 L 277 232 L 277 229 L 276 226 L 276 223 L 275 220 L 275 217 L 274 213 L 273 210 L 273 207 L 272 204 L 272 201 L 271 198 L 270 195 L 270 192 L 269 189 L 268 186 L 267 183 L 267 180 L 266 177 L 265 174 L 265 171 L 264 169 L 263 166 L 263 163 L 262 160 L 262 157 L 261 154 L 261 151 L 260 149 L 260 146 L 259 143 L 259 141 L 259 138 L 258 135 L 258 133 L 258 130 L 258 128 L 258 125 L 258 123 L 258 120 L 258 118 L 258 116 L 259 114 Z" fill="none" stroke="rgb(186,182,168)" stroke-linecap="round" stroke-linejoin="round" stroke-width="40" /></svg>