<?xml version="1.0" encoding="utf-8" ?>
<svg baseProfile="full" height="1000" version="1.1" width="1000" xmlns="http://www.w3.org/2000/svg" xmlns:ev="http://www.w3.org/2001/xml-events" xmlns:xlink="http://www.w3.org/1999/xlink"><defs /><rect fill="rgb(58,156,53)" height="1000" width="1000" x="0" y="0" /><path d="M 933 87 L 935 89 L 936 91 L 937 93 L 938 94 L 938 96 L 939 98 L 940 100 L 941 102 L 942 104 L 942 107 L 943 109 L 944 111 L 944 113 L 945 116 L 946 118 L 946 120 L 947 123 L 947 125 L 948 128 L 948 131 L 949 133 L 949 136 L 949 139 L 950 141 L 950 144 L 950 147 L 950 150 L 951 153 L 951 156 L 951 159 L 951 162 L 951 165 L 952 168 L 952 171 L 952 174 L 952 177 L 952 180 L 952 183 L 952 186 L 952 190 L 952 193 L 952 196 L 952 199 L 952 203 L 952 206 L 952 209 L 952 213 L 952 216 L 952 219 L 952 223 L 952 226 L 952 230 L 952 233 L 952 236 L 951 240 L 951 243 L 951 247 L 951 250 L 951 254 L 951 257 L 951 260 L 951 264 L 951 267 L 950 271 L 950 274 L 950 278 L 950 281 L 950 284 L 950 288 L 950 291 L 950 295 L 950 298 L 950 301 L 950 305 L 950 308 L 949 311 L 949 315 L 949 318 L 949 321 L 949 324 L 949 328 L 949 331 L 949 334 L 949 337 L 950 341 L 950 344 L 950 347 L 950 350 L 950 353 L 950 356 L 950 360 L 950 363 L 950 366 L 950 369 L 950 372 L 950 375 L 950 378 L 951 381 L 951 384 L 951 387 L 951 390 L 951 393 L 951 396 L 951 399 L 951 402 L 951 405 L 952 408 L 952 411 L 952 414 L 952 417 L 952 420 L 952 423 L 952 426 L 952 429 L 952 432 L 953 435 L 953 438 L 953 440 L 953 443 L 953 446 L 953 449 L 953 452 L 953 455 L 953 458 L 953 461 L 954 463 L 954 466 L 954 469 L 954 472 L 954 475 L 954 478 L 954 481 L 954 483 L 954 486 L 954 489 L 954 492 L 954 495 L 954 498 L 954 500 L 954 503 L 954 506 L 954 509 L 954 512 L 954 515 L 954 517 L 954 520 L 953 523 L 953 526 L 953 529 L 953 531 L 953 534 L 953 537 L 953 540 L 952 543 L 952 546 L 952 549 L 952 551 L 952 554 L 951 557 L 951 560 L 951 563 L 950 566 L 950 569 L 950 571 L 949 574 L 949 577 L 949 580 L 948 583 L 948 586 L 947 589 L 947 592 L 946 595 L 946 597 L 945 600 L 945 603 L 944 606 L 944 609 L 943 612 L 942 615 L 942 618 L 941 621 L 940 624 L 940 627 L 939 630 L 938 633 L 937 636 L 936 639 L 936 641 L 935 644 L 934 647 L 933 650 L 932 653 L 931 655 L 929 658 L 928 661 L 927 664 L 926 666 L 925 669 L 923 672 L 922 674 L 921 677 L 919 679 L 918 682 L 916 684 L 915 686 L 913 689 L 911 691 L 910 693 L 908 695 L 906 698 L 904 700 L 902 702 L 900 704 L 898 706 L 896 708 L 894 710 L 892 712 L 890 714 L 888 716 L 886 718 L 884 719 L 881 721 L 879 723 L 877 725 L 874 726 L 872 728 L 870 730 L 867 731 L 865 733 L 862 735 L 860 736 L 857 738 L 855 739 L 852 741 L 850 742 L 847 744 L 845 745 L 842 747 L 839 748 L 837 750 L 834 751 L 831 753 L 829 754 L 826 755 L 823 757 L 820 758 L 818 760 L 815 761 L 812 762 L 809 764 L 807 765 L 804 766 L 801 768 L 798 769 L 796 770 L 793 772 L 790 773 L 787 775 L 784 776 L 782 777 L 779 779 L 776 780 L 773 782 L 771 783 L 768 784 L 765 786 L 762 787 L 760 789 L 757 790 L 754 792 L 752 793 L 749 795 L 746 796 L 744 798 L 741 799 L 739 801 L 736 802 L 734 804 L 731 806 L 728 807 L 726 809 L 724 811 L 721 812 L 719 814 L 716 816 L 714 817 L 711 819 L 709 821 L 707 823 L 704 825 L 702 826 L 699 828 L 697 830 L 695 832 L 692 833 L 690 835 L 688 837 L 685 839 L 683 841 L 681 842 L 678 844 L 676 846 L 674 848 L 671 850 L 669 851 L 667 853 L 664 855 L 662 857 L 660 858 L 657 860 L 655 862 L 653 863 L 650 865 L 648 867 L 645 868 L 643 870 L 641 872 L 638 873 L 636 875 L 633 876 L 631 878 L 628 880 L 626 881 L 623 883 L 621 884 L 618 885 L 615 887 L 613 888 L 610 889 L 607 891 L 605 892 L 602 893 L 599 895 L 596 896 L 594 897 L 591 898 L 588 899 L 585 900 L 582 901 L 579 902 L 576 903 L 573 904 L 570 905 L 567 905 L 564 906 L 561 907 L 558 907 L 554 908 L 551 909 L 548 909 L 545 910 L 541 910 L 538 911 L 535 911 L 532 911 L 528 911 L 525 912 L 522 912 L 519 912 L 515 912 L 512 912 L 509 912 L 505 912 L 502 912 L 499 912 L 496 911 L 492 911 L 489 911 L 486 911 L 483 910 L 479 910 L 476 909 L 473 909 L 470 908 L 467 907 L 464 907 L 461 906 L 458 905 L 455 904 L 452 903 L 449 902 L 446 901 L 443 900 L 440 899 L 437 898 L 435 896 L 432 895 L 429 894 L 426 892 L 424 891 L 421 889 L 419 887 L 416 886 L 414 884 L 412 882 L 409 880 L 407 878 L 405 876 L 403 874 L 401 872 L 399 870 L 397 868 L 395 865 L 394 863 L 392 861 L 390 858 L 389 856 L 387 853 L 386 850 L 384 848 L 383 845 L 382 842 L 381 839 L 379 836 L 378 833 L 377 830 L 376 828 L 375 825 L 374 822 L 373 819 L 372 816 L 371 812 L 370 809 L 369 806 L 368 803 L 367 800 L 366 797 L 365 794 L 364 791 L 363 788 L 362 785 L 361 783 L 360 780 L 359 777 L 358 774 L 357 771 L 355 768 L 354 766 L 353 763 L 351 761 L 350 758 L 348 756 L 347 753 L 345 751 L 344 749 L 342 746 L 340 744 L 338 742 L 336 740 L 334 738 L 332 737 L 329 735 L 327 733 L 324 732 L 322 731 L 319 729 L 316 728 L 313 727 L 310 726 L 307 725 L 304 725 L 301 724 L 297 723 L 294 723 L 290 722 L 287 722 L 283 722 L 279 722 L 276 721 L 272 721 L 268 721 L 264 721 L 260 721 L 256 721 L 253 721 L 249 721 L 245 721 L 241 722 L 237 722 L 233 722 L 229 722 L 225 722 L 221 722 L 217 722 L 214 723 L 210 723 L 206 723 L 202 723 L 199 723 L 195 723 L 192 723 L 188 723 L 185 723 L 182 723 L 178 723 L 175 722 L 172 722 L 169 722 L 167 721 L 164 721 L 161 720 L 159 720 L 156 719 L 154 718 L 152 717 L 150 716 L 148 715 L 147 714 L 145 712 L 144 711 L 143 709 L 142 708 L 141 706 L 140 704 L 140 702 L 139 699 L 139 697 L 140 694 L 140 692 L 140 689 L 141 686 L 142 683 L 143 680 L 144 677 L 145 673 L 146 670 L 147 667 L 148 663 L 150 660 L 151 657 L 152 653 L 153 650 L 154 647 L 155 644 L 155 641 L 156 638 L 156 635 L 156 633 L 156 630 L 156 628 L 155 626 L 154 624 L 153 622 L 152 621 L 150 620 L 148 618 L 146 618 L 143 617 L 140 616 L 137 616 L 134 615 L 131 615 L 128 615 L 125 614 L 121 614 L 118 614 L 114 614 L 111 613 L 108 613 L 104 613 L 101 612 L 98 611 L 95 611 L 92 610 L 90 609 L 87 607 L 85 606 L 82 605 L 80 603 L 78 601 L 76 599 L 75 597 L 73 595 L 71 593 L 70 591 L 68 589 L 67 586 L 66 584 L 64 581 L 63 578 L 62 576 L 61 573 L 60 570 L 59 567 L 59 564 L 58 561 L 57 557 L 57 554 L 56 551 L 55 547 L 55 544 L 54 540 L 54 537 L 53 533 L 53 530 L 52 526 L 52 522 L 51 519 L 51 515 L 50 511 L 50 507 L 50 504 L 49 500 L 49 496 L 48 492 L 47 488 L 47 484 L 46 481 L 46 477 L 45 473 L 45 469 L 44 465 L 43 461 L 43 457 L 42 453 L 42 450 L 41 446 L 40 442 L 40 438 L 39 434 L 39 430 L 38 427 L 38 423 L 37 419 L 37 415 L 36 412 L 36 408 L 35 404 L 35 401 L 34 397 L 34 393 L 34 390 L 33 386 L 33 383 L 33 379 L 33 376 L 32 372 L 32 369 L 32 366 L 32 363 L 32 359 L 32 356 L 32 353 L 32 350 L 32 347 L 32 344 L 33 341 L 33 338 L 33 335 L 33 333 L 34 330 L 34 327 L 35 325 L 35 322 L 36 320 L 37 317 L 38 315 L 38 313 L 39 311 L 40 309 L 41 307 L 42 305 L 44 303 L 45 301 L 46 299 L 48 298 L 49 296 L 51 295 L 52 293 L 54 292 L 56 291 L 58 290 L 60 289 L 62 288 L 64 287 L 66 286 L 68 286 L 71 285 L 73 285 L 76 284 L 79 284 L 81 284 L 84 284 L 87 284 L 90 284 L 93 284 L 96 284 L 99 284 L 102 284 L 105 285 L 108 285 L 112 285 L 115 286 L 118 286 L 121 286 L 125 287 L 128 287 L 131 287 L 135 288 L 138 288 L 142 288 L 145 289 L 148 289 L 152 289 L 155 290 L 158 290 L 161 290 L 165 290 L 168 290 L 171 290 L 174 290 L 177 290 L 180 290 L 183 290 L 186 289 L 189 289 L 192 288 L 194 288 L 197 287 L 200 286 L 202 285 L 205 284 L 207 283 L 209 282 L 211 280 L 213 279 L 215 277 L 217 275 L 219 274 L 220 272 L 222 269 L 224 267 L 225 265 L 226 263 L 228 260 L 229 257 L 230 255 L 231 252 L 232 249 L 233 246 L 234 243 L 235 240 L 236 237 L 237 234 L 237 231 L 238 228 L 239 225 L 240 222 L 240 219 L 241 215 L 242 212 L 242 209 L 243 206 L 244 203 L 244 199 L 245 196 L 246 193 L 246 190 L 247 187 L 248 184 L 249 181 L 250 178 L 251 175 L 251 173 L 252 170 L 253 167 L 255 165 L 256 162 L 257 160 L 258 157 L 259 155 L 261 153 L 262 151 L 264 149 L 265 147 L 267 146 L 268 144 L 270 142 L 272 141 L 274 139 L 276 138 L 277 136 L 279 135 L 281 134 L 283 133 L 286 132 L 288 131 L 290 130 L 292 129 L 294 128 L 297 127 L 299 127 L 302 126 L 304 126 L 307 125 L 309 125 L 312 124 L 314 124 L 317 123 L 320 123 L 323 123 L 325 123 L 328 123 L 331 122 L 334 122 L 337 122 L 340 122 L 343 122 L 346 122 L 349 122 L 352 123 L 355 123 L 358 123 L 362 123 L 365 123 L 368 124 L 371 124 L 375 124 L 378 125 L 381 125 L 385 125 L 388 126 L 391 126 L 395 126 L 398 127 L 402 127 L 405 128 L 409 128 L 413 128 L 416 129 L 420 129 L 423 130 L 427 130 L 431 131 L 434 131 L 438 131 L 442 132 L 445 132 L 449 133 L 453 133 L 457 133 L 460 134 L 464 134 L 468 134 L 472 135 L 475 135 L 479 135 L 483 136 L 487 136 L 491 136 L 495 136 L 498 136 L 502 136 L 506 136 L 510 137 L 514 137 L 518 136 L 521 136 L 525 136 L 529 136 L 533 136 L 537 136 L 541 136 L 544 135 L 548 135 L 552 135 L 556 134 L 560 134 L 564 134 L 567 133 L 571 133 L 575 132 L 579 132 L 583 131 L 586 131 L 590 130 L 594 129 L 598 129 L 602 128 L 605 127 L 609 127 L 613 126 L 617 125 L 620 124 L 624 124 L 628 123 L 632 122 L 635 121 L 639 120 L 643 119 L 646 119 L 650 118 L 654 117 L 658 116 L 661 115 L 665 114 L 668 113 L 672 112 L 676 111 L 679 110 L 683 109 L 686 108 L 690 107 L 694 106 L 697 105 L 701 104 L 704 103 L 708 102 L 711 101 L 715 100 L 718 99 L 722 98 L 725 97 L 728 96 L 732 95 L 735 94 L 739 93 L 742 92 L 745 91 L 749 90 L 752 89 L 755 88 L 758 87 L 762 86 L 765 85 L 768 84 L 771 83 L 775 82 L 778 82 L 781 81 L 784 80 L 787 79 L 790 78 L 793 77 L 796 76 L 799 76 L 802 75 L 805 74 L 808 73 L 811 73 L 814 72 L 817 71 L 820 70 L 822 70 L 825 69 L 828 69 L 831 68 L 834 67 L 836 67 L 839 66 L 842 66 L 844 65 L 847 65 L 849 65 L 852 64 L 854 64 L 857 64 L 859 63 L 862 63 L 864 63 L 867 63 L 869 63 L 871 63 L 874 62 L 876 62 L 878 62 L 880 62 L 883 63 L 885 63 L 887 63 L 889 63 L 891 63 L 893 64 L 895 64 L 897 64 L 899 65 L 901 65 L 903 66 L 904 66 L 906 67 L 908 67 L 910 68 L 911 69 L 913 69 L 915 70 L 916 71 L 918 72 L 919 73 L 921 74 L 922 75 L 924 76 L 925 78 L 926 79 L 928 80 L 929 81 L 930 83 L 931 84 L 932 86 L 933 88 Z" fill="none" stroke="rgb(186,182,168)" stroke-linecap="round" stroke-linejoin="round" stroke-width="40" /></svg>